<svg xmlns="http://www.w3.org/2000/svg" viewBox="0 0 96 64" width="96" height="64">
  <g fill="none" stroke-linecap="butt" stroke-linejoin="round">
    <path d="M7 0 C9 16 5 32 8 48 C9 56 6 60 7 64" stroke="#000" stroke-width="1.3" opacity=".14"/>
    <path d="M19 0 C16 18 21 38 18 64" stroke="#000" stroke-width=".9" opacity=".1"/>
    <path d="M31 0 C33 14 28 34 32 50 C33 58 30 62 31 64" stroke="#3a2818" stroke-width="1.1" opacity=".16"/>
    <path d="M44 0 C41 20 46 40 43 64" stroke="#000" stroke-width="1.4" opacity=".12"/>
    <path d="M56 0 C58 12 54 36 57 52 C58 58 55 62 56 64" stroke="#c4a574" stroke-width=".8" opacity=".08"/>
    <path d="M68 0 C65 22 70 42 67 64" stroke="#000" stroke-width="1.05" opacity=".11"/>
    <path d="M80 0 C82 18 78 40 81 56 C82 60 79 62 80 64" stroke="#3a2818" stroke-width="1.2" opacity=".13"/>
    <path d="M92 0 C90 24 94 44 91 64" stroke="#000" stroke-width=".7" opacity=".09"/>
  </g>
  <g fill="#000" opacity=".07">
    <circle cx="12" cy="11" r=".55"/>
    <circle cx="26" cy="27" r=".45"/>
    <circle cx="39" cy="9" r=".5"/>
    <circle cx="51" cy="38" r=".6"/>
    <circle cx="63" cy="18" r=".4"/>
    <circle cx="74" cy="47" r=".5"/>
    <circle cx="88" cy="22" r=".45"/>
    <circle cx="15" cy="52" r=".4"/>
    <circle cx="47" cy="58" r=".55"/>
    <circle cx="70" cy="7" r=".4"/>
  </g>
</svg>
