<?xml version="1.0" encoding="UTF-8"?>
<svg xmlns="http://www.w3.org/2000/svg" viewBox="0 0 32 44" role="img" aria-label="Bamboo 6">
  <title>Bamboo 6</title>
  <rect x="9.8" y="7.4" width="2.4" height="7.2" fill="#2a6b3a" rx="0.6"/>
  <rect x="9.55" y="10.424" width="2.9" height="1.4" fill="#e2b84a" rx="0.3"/>
  <rect x="10.15" y="7.8" width="1.7" height="0.9" fill="#1e4f2a"/>
  <rect x="19.8" y="7.4" width="2.4" height="7.2" fill="#2a6b3a" rx="0.6"/>
  <rect x="19.55" y="10.424" width="2.9" height="1.4" fill="#e2b84a" rx="0.3"/>
  <rect x="20.15" y="7.8" width="1.7" height="0.9" fill="#1e4f2a"/>
  <rect x="9.8" y="16.4" width="2.4" height="7.2" fill="#2a6b3a" rx="0.6"/>
  <rect x="9.55" y="19.424" width="2.9" height="1.4" fill="#e2b84a" rx="0.3"/>
  <rect x="10.15" y="16.8" width="1.7" height="0.9" fill="#1e4f2a"/>
  <rect x="19.8" y="16.4" width="2.4" height="7.2" fill="#2a6b3a" rx="0.6"/>
  <rect x="19.55" y="19.424" width="2.9" height="1.4" fill="#e2b84a" rx="0.3"/>
  <rect x="20.15" y="16.8" width="1.7" height="0.9" fill="#1e4f2a"/>
  <rect x="9.8" y="25.4" width="2.4" height="7.2" fill="#2a6b3a" rx="0.6"/>
  <rect x="9.55" y="28.424" width="2.9" height="1.4" fill="#e2b84a" rx="0.3"/>
  <rect x="10.15" y="25.8" width="1.7" height="0.9" fill="#1e4f2a"/>
  <rect x="19.8" y="25.4" width="2.4" height="7.2" fill="#2a6b3a" rx="0.6"/>
  <rect x="19.55" y="28.424" width="2.9" height="1.4" fill="#e2b84a" rx="0.3"/>
  <rect x="20.15" y="25.8" width="1.7" height="0.9" fill="#1e4f2a"/>
</svg>
